# xmcd CD database file
#
# Track frame offsets:
#	150
#	26190
#	54590
#	72257
#	99307
#	128500
#	162432
#	184312
#
# Disc length: 2635 seconds
#
# Revision: 1
# Processed by: cddbd v1.5.2PL0 Copyright (c) Steve Scherf et al.
# Submitted via: CDex 1.51
#
DISCID=6a0a4908
DTITLE=Elmo Hope - Elmo Hope trio
DYEAR=1970
DGENRE=Jazz
TTITLE0=B's A-Plenty
TTITLE1=Barfly
TTITLE2=Eejah
TTITLE3=Boa
TTITLE4=Something for Kenny
TTITLE5=Like Someone in Love
TTITLE6=Minor Bertha
TTITLE7=Tranquility
EXTD=YEAR: 1970
EXTT0=
EXTT1=
EXTT2=
EXTT3=
EXTT4=
EXTT5=
EXTT6=
EXTT7=
PLAYORDER=
